# xmcd CD database file
#
# Track frame offsets:
#	150
#	13847
#	25966
#	35990
#	49021
#	71249
#	91806
#	101786
#	112749
#	124708
#	137915
#	145982
#	159916
#	178946
#
# Disc length: 2516 seconds
#
# Revision: 0
# Processed by: cddbd v1.5.2PL0 Copyright (c) Steve Scherf et al.
# Submitted via: CDex 1.74
#
DISCID=c709d20e
DTITLE=Lazy Susan - Places that made us
DYEAR=2010
DGENRE=Blues
TTITLE0=Easy targets
TTITLE1=Stardust Hotel
TTITLE2=Find me a way back into your heart
TTITLE3=Jailbird sings
TTITLE4=Responsibility of love
TTITLE5=Somewhere
TTITLE6=Ghost
TTITLE7=Around you
TTITLE8=Sore losers
TTITLE9=Bad hands
TTITLE10=No good cheap way
TTITLE11=Expecting to change
TTITLE12=Don't get too excited
TTITLE13=I can't wait
EXTD=YEAR: 2010
EXTT0=
EXTT1=
EXTT2=
EXTT3=
EXTT4=
EXTT5=
EXTT6=
EXTT7=
EXTT8=
EXTT9=
EXTT10=
EXTT11=
EXTT12=
EXTT13=
PLAYORDER=
